<svg id="Layer_1" data-name="Layer 1" xmlns="http://www.w3.org/2000/svg" viewBox="0 0 44.63 43.89"><title>cryptokuma-icon</title><path d="M50.14,32.68a6.55,6.55,0,1,1,9.24.5A6.55,6.55,0,0,1,50.14,32.68Z" transform="translate(-16.93 -20.8)" style="fill:#f39322"/><path d="M34.12,47.06a6.55,6.55,0,1,1,9.24.5A6.54,6.54,0,0,1,34.12,47.06Z" transform="translate(-16.93 -20.8)" style="fill:#47ad4d"/><path d="M18.88,60.74a6.55,6.55,0,1,1,9.25.5A6.55,6.55,0,0,1,18.88,60.74Z" transform="translate(-16.93 -20.8)" style="fill:#633188"/><path d="M42.59,63a6.63,6.63,0,0,0,.8-.89c.08-.1.15-.21.22-.31s.28-.45.41-.68.13-.25.18-.38a6,6,0,0,0,.28-.78l.05-.16a10,10,0,0,0,.16-2A8.17,8.17,0,0,1,45,55.41a8.49,8.49,0,0,1,2.13-3.63h0l.13-.14a6.23,6.23,0,0,1,4.5-1.86c.82.11,1.28.18,1.55.23.07,0,.26.05.51.07s.33,0,.58,0A6.83,6.83,0,0,0,55.59,50a7.75,7.75,0,0,0,.78-.18h0l.4-.14c.24-.1.48-.21.71-.33l.33-.19a6.43,6.43,0,0,0,1-.7,6.55,6.55,0,1,0-8.75-9.74,6.63,6.63,0,0,0-.8.88c-.08.1-.15.21-.22.31a6.71,6.71,0,0,0-.4.68,3.37,3.37,0,0,0-.19.38,7.38,7.38,0,0,0-.28.78,5.8,5.8,0,0,0-.2.84,6.5,6.5,0,0,0-.11,1.33c0,.34,0,.46,0,.85a4.77,4.77,0,0,1,0,1.28,7.15,7.15,0,0,1-2.49,3.8,7.77,7.77,0,0,1-3.61,1.71,16.31,16.31,0,0,1-2.8.14c-.33,0-.48,0-.8,0h-.48a4.82,4.82,0,0,0-.63.06,5.2,5.2,0,0,0-.8.19l-.41.14c-.24.1-.47.21-.71.33a3.54,3.54,0,0,0-.33.19,6.43,6.43,0,0,0-1,.7A6.55,6.55,0,0,0,42.59,63Z" transform="translate(-16.93 -20.8)" style="fill:#262b5f"/><path d="M33.28,28.4a7.82,7.82,0,0,1-.3,1.93,6.82,6.82,0,0,1-2.27,3.16S28,35.78,25.05,35.43h0l-.26,0-.35-.06a3.37,3.37,0,0,0-.35,0,6.57,6.57,0,0,0-1.39,0,5.69,5.69,0,0,0-1.11.25l-.4.14c-.2.08-.44.19-.71.33l-.34.19a8.1,8.1,0,0,0-1,.7,7,7,0,0,0-2.24,4.76,6.55,6.55,0,0,0,1.74,4.48,6.8,6.8,0,0,0,9.24.51,11.63,11.63,0,0,0,.95-1h0a4.43,4.43,0,0,0,.67-1.22,10.25,10.25,0,0,0,.37-1.08c.3-1.13.17-1.35.42-2.41a10.74,10.74,0,0,1,.59-1.82,12.28,12.28,0,0,1,.81-1.59A5.11,5.11,0,0,1,32.1,37c.24-.34.44-.57.49-.63a4.39,4.39,0,0,1,.32-.36h0a8.15,8.15,0,0,1,3.55-2.56,8.7,8.7,0,0,1,.94-.19,9.74,9.74,0,0,1,2-.05,8.43,8.43,0,0,0,3.2-.26,5.33,5.33,0,0,0,2-1.26,6.23,6.23,0,0,0,1.82-3.42,6.6,6.6,0,0,0-1.72-5.35,6.67,6.67,0,0,0-5.71-2,7,7,0,0,0-4.33,2.39c-.12.15-.23.31-.23.31s-.24.38-.4.68c-.05.1-.11.22-.18.38a6.73,6.73,0,0,0-.28.78l-.1.3a5.28,5.28,0,0,0-.17,1.36C33.22,27.76,33.27,28,33.28,28.4Z" transform="translate(-16.93 -20.8)" style="fill:#0a5e2b"/></svg>